<svg width="24" height="24" viewBox="0 0 24 24" fill="#D9D9D9" stroke="black" xmlns="http://www.w3.org/2000/svg">
<mask id="mask0_2008_7" style="mask-type:alpha" maskUnits="userSpaceOnUse" x="0" y="0" width="24" height="24">
<rect x="0.5" y="0.5" width="23" height="23" />
</mask>
<g mask="url(#mask0_2008_7)">
<path d="M4 2.5H20C20.4163 2.5 20.7599 2.64276 21.0586 2.94141C21.3572 3.24005 21.5 3.58366 21.5 4V20.793L18.207 17.5H4C3.58366 17.5 3.24005 17.3572 2.94141 17.0586C2.64276 16.7599 2.5 16.4163 2.5 16V4C2.5 3.58366 2.64276 3.24005 2.94141 2.94141C3.24005 2.64276 3.58366 2.5 4 2.5ZM3.5 16.5H18.6455L19.6504 17.4824L20.5 18.3135V3.5H3.5V16.5Z" />
</g>
</svg>
