<svg width="24" height="24" viewBox="0 0 24 24" fill="#D9D9D9" xmlns="http://www.w3.org/2000/svg">
<mask id="mask0_2009_7" style="mask-type:alpha" maskUnits="userSpaceOnUse" x="0" y="0" width="24" height="24">
<rect width="24" height="24" />
</mask>
<g mask="url(#mask0_2009_7)">
<path d="M11 12V2H13V12H11ZM12 19C9.76667 19 7.875 18.225 6.325 16.675C4.775 15.125 4 13.2333 4 11C4 9.68333 4.30417 8.45 4.9125 7.3C5.52083 6.15 6.36667 5.2 7.45 4.45L8.9 5.9C8 6.43333 7.29167 7.15417 6.775 8.0625C6.25833 8.97083 6 9.95 6 11C6 12.6667 6.58333 14.0833 7.75 15.25C8.91667 16.4167 10.3333 17 12 17C13.6667 17 15.0833 16.4167 16.25 15.25C17.4167 14.0833 18 12.6667 18 11C18 9.95 17.7417 8.97083 17.225 8.0625C16.7083 7.15417 16 6.43333 15.1 5.9L16.55 4.45C17.6333 5.2 18.4792 6.15 19.0875 7.3C19.6958 8.45 20 9.68333 20 11C20 13.2333 19.225 15.125 17.675 16.675C16.125 18.225 14.2333 19 12 19ZM8 24C7.71667 24 7.47917 23.9042 7.2875 23.7125C7.09583 23.5208 7 23.2833 7 23C7 22.7167 7.09583 22.4792 7.2875 22.2875C7.47917 22.0958 7.71667 22 8 22C8.28333 22 8.52083 22.0958 8.7125 22.2875C8.90417 22.4792 9 22.7167 9 23C9 23.2833 8.90417 23.5208 8.7125 23.7125C8.52083 23.9042 8.28333 24 8 24ZM12 24C11.7167 24 11.4792 23.9042 11.2875 23.7125C11.0958 23.5208 11 23.2833 11 23C11 22.7167 11.0958 22.4792 11.2875 22.2875C11.4792 22.0958 11.7167 22 12 22C12.2833 22 12.5208 22.0958 12.7125 22.2875C12.9042 22.4792 13 22.7167 13 23C13 23.2833 12.9042 23.5208 12.7125 23.7125C12.5208 23.9042 12.2833 24 12 24ZM16 24C15.7167 24 15.4792 23.9042 15.2875 23.7125C15.0958 23.5208 15 23.2833 15 23C15 22.7167 15.0958 22.4792 15.2875 22.2875C15.4792 22.0958 15.7167 22 16 22C16.2833 22 16.5208 22.0958 16.7125 22.2875C16.9042 22.4792 17 22.7167 17 23C17 23.2833 16.9042 23.5208 16.7125 23.7125C16.5208 23.9042 16.2833 24 16 24Z"/>
</g>
</svg>
